<svg xmlns="http://www.w3.org/2000/svg" viewBox="0 0 32 32">
  <rect width="32" height="32" rx="8" fill="#FF6A1A"/>
  <path d="M16 5c1.6 3 4.2 4.5 4.2 8a4.2 4.2 0 0 1-4.2 4.2A4.2 4.2 0 0 1 11.8 13c0-2.2 1.4-3.4 2.6-5.1.7-1 1-2 1.6-2.9Z" fill="none" stroke="#fff" stroke-width="1.8" stroke-linecap="round" stroke-linejoin="round"/>
  <path d="M11.4 16.7c-.9 1.2-1.4 2.6-1.4 4.1A6 6 0 0 0 16 24.5a6 6 0 0 0 6-5.6c-.1-1.4-.6-2.7-1.5-3.8" fill="none" stroke="#fff" stroke-width="1.8" stroke-linecap="round" stroke-linejoin="round"/>
</svg>
